<?xml version="1.0" encoding="utf-8"?>
<!DOCTYPE svg PUBLIC "-//W3C//DTD SVG 1.1//EN" "http://www.w3.org/Graphics/SVG/1.1/DTD/svg11.dtd">
<svg xmlns="http://www.w3.org/2000/svg" xmlns:xlink="http://www.w3.org/1999/xlink" version="1.1" baseProfile="full" viewBox="0 0 284.63 131.51" enable-background="new 0 0 284.63 131.51" xml:space="preserve">
	<defs>
		<pattern id="Image_fill1_" x="0" y="0" width="899" height="350" patternUnits="userSpaceOnUse" patternContentUnits="userSpaceOnUse" patternTransform="matrix(1.73,0.36,0.36,1.18,-1833.23,680.96)">
			<image xlink:href="Slice1_files/image1.jpg" width="899" height="350"/>
		</pattern>
	</defs>
	<path fill="url(#Image_fill1_)" stroke-width="0.2" stroke-linejoin="round" d="M 280.943,96.1642C 282.23,99.5121 277.512,105.721 272.229,109.932C 266.946,114.143 261.097,116.356 255.069,117.241C 249.042,118.126 242.837,117.682 235.432,116.484C 228.028,115.287 219.425,113.336 211.442,111.429C 203.459,109.522 196.097,107.66 188.735,105.797L 179.845,103.011L 170.167,99.9769L 139.414,90.3366L 129.971,87.3763C 127.423,86.4179 124.875,85.4595 121.748,84.283C 118.62,83.1064 114.914,81.7119 110.164,79.9242C 105.414,78.1364 99.6202,75.9555 92.082,73.1145C 84.544,70.2737 75.2612,66.7727 68.25,64.1034C 61.2388,61.4342 56.4993,59.5969 51.6534,57.7829C 46.8076,55.9691 41.8554,54.1787 38.9837,54.3796C 36.1121,54.5805 35.3208,56.7726 32.823,55.8405C 30.3251,54.9086 26.1207,50.8526 23.0558,48.461C 19.9911,46.0696 18.066,45.3426 16.3049,44.6799C 14.5436,44.0171 12.9463,43.4185 12.1194,43.1234C 11.2924,42.8282 11.2358,42.8364 11.0513,43.0072C 10.8669,43.1781 10.5544,43.5115 10.29,43.8021C 10.0255,44.0928 9.80914,44.3406 9.90671,44.2553C 10.0043,44.17 10.4159,43.7516 10.6585,43.1507C 10.901,42.5498 10.9743,41.7665 12.0202,40.0068C 13.0661,38.2471 15.0845,35.5111 17.2484,33.2326C 19.4123,30.9541 21.7217,29.1333 23.7748,27.6162C 25.8279,26.0992 27.6246,24.8858 29.0155,23.9301C 30.4064,22.9744 31.3913,22.2761 32.1966,21.6993C 33.0019,21.1223 33.6277,20.6668 34.2534,20.2113C 37.3125,18.4538 40.3718,16.6964 41.105,16.2373C 41.8382,15.7782 40.2452,16.6176 39.7215,16.8517C 39.1978,17.0859 39.743,16.7149 40.3135,16.339C 40.884,15.9631 41.4796,15.5824 42.0206,15.2388C 42.5617,14.8952 43.0481,14.5887 43.5347,14.2821C 49.6854,16.7452 55.8362,19.2083 62.5412,21.8891C 69.2462,24.5699 76.5055,27.4684 82.9065,30.0058C 89.3073,32.5432 94.8499,34.7197 99.843,36.6659C 104.836,38.6122 109.28,40.3281 113.373,41.8984C 117.465,43.4688 121.208,44.8936 128.062,46.2914C 134.917,47.6892 144.883,49.0602 149.365,50.7308C 153.847,52.4013 152.844,54.3714 155.087,56.3459C 157.33,58.3204 162.82,60.2992 168.366,62.2767C 173.913,64.2541 179.517,66.2301 185.099,68.1712C 190.681,70.1123 196.241,72.0184 200.966,73.6352C 205.69,75.2518 209.578,76.5791 212.91,77.7157C 216.242,78.8524 219.018,79.7985 221.794,80.7445C 227.321,82.4345 232.849,84.1244 238.372,85.7167C 243.895,87.3089 249.412,88.8036 253.863,89.8081C 258.313,90.8128 261.695,91.3276 267.031,91.8284C 272.368,92.3293 279.657,92.8163 280.943,96.1642 Z "/>
</svg>
